# xmcd
#
# Track frame offsets:
#	150
#	47790
#	72140
#	110958
#	156825
#	199188
#	232730
#	255760
#
# Disc length: 3714 seconds
#
# Revision: 1
# Processed by: cddbd v1.5.1PL0 Copyright (c) Steve Scherf et al.
# Submitted via: CDex 1.50Beta5
#
DISCID=640e8008
DTITLE=MELOS QUALTETT - STRING QUINTETS NOS.4&5
DYEAR=1900
DGENRE=Classical
TTITLE0=STRING QUINTET NO.4 G minor K.516 第1楽章
TTITLE1=第2楽章
TTITLE2=第3楽章
TTITLE3=第4楽章
TTITLE4=STRING QUINTET NO.5 D major K.593 第1楽章
TTITLE5=第2楽章
TTITLE6=第3楽章
TTITLE7=第4楽章
EXTD=
EXTT0=
EXTT1=
EXTT2=
EXTT3=
EXTT4=
EXTT5=
EXTT6=
EXTT7=
PLAYORDER=
